<svg width="11" height="12" viewBox="0 0 11 12" fill="none" xmlns="http://www.w3.org/2000/svg">
<path d="M9.99999 4.5L9.99999 1.5M9.99999 1.5H6.99999M9.99999 1.5L5.5 6M4.5 1.5H3.4C2.55992 1.5 2.13988 1.5 1.81901 1.66349C1.53677 1.8073 1.3073 2.03677 1.16349 2.31901C1 2.63988 1 3.05992 1 3.9V8.1C1 8.94008 1 9.36012 1.16349 9.68099C1.3073 9.96323 1.53677 10.1927 1.81901 10.3365C2.13988 10.5 2.55992 10.5 3.4 10.5H7.6C8.44008 10.5 8.86012 10.5 9.18099 10.3365C9.46323 10.1927 9.6927 9.96323 9.83651 9.68099C10 9.36012 10 8.94008 10 8.1V7" stroke="#ED7752" stroke-width="1.5" stroke-linecap="round" stroke-linejoin="round"/>
</svg>
