<svg width="20" height="17" viewBox="0 0 20 17" fill="none" xmlns="http://www.w3.org/2000/svg">
<path d="M14.1666 10.0833V7.57869C14.1666 7.42913 14.1666 7.35434 14.1439 7.28832C14.1237 7.22994 14.0908 7.17676 14.0476 7.13263C13.9988 7.08274 13.9319 7.0493 13.7981 6.98241L9.99996 5.08334M3.33329 5.91667V11.5889C3.33329 11.8988 3.33329 12.0537 3.38164 12.1894C3.42438 12.3094 3.49404 12.4179 3.58527 12.5068C3.68847 12.6072 3.82935 12.6718 4.11109 12.8009L9.44442 15.2454C9.64878 15.339 9.75096 15.3859 9.85741 15.4044C9.95174 15.4207 10.0482 15.4207 10.1425 15.4044C10.249 15.3859 10.3511 15.339 10.5555 15.2454L15.8888 12.8009C16.1706 12.6718 16.3114 12.6072 16.4146 12.5068C16.5059 12.4179 16.5755 12.3094 16.6183 12.1894C16.6666 12.0537 16.6666 11.8988 16.6666 11.5889V5.91667M1.66663 5.08334L9.70182 1.06574C9.81114 1.01108 9.86579 0.983752 9.92313 0.972996C9.97391 0.963469 10.026 0.963469 10.0768 0.972996C10.1341 0.983752 10.1888 1.01108 10.2981 1.06574L18.3333 5.08334L10.2981 9.10093C10.1888 9.15559 10.1341 9.18292 10.0768 9.19368C10.026 9.2032 9.97391 9.2032 9.92313 9.19368C9.86579 9.18292 9.81114 9.15559 9.70182 9.10093L1.66663 5.08334Z" stroke="#ED7752" stroke-width="1.66667" stroke-linecap="round" stroke-linejoin="round"/>
</svg>
