<?xml version="1.0" encoding="UTF-8"?>
<svg id="Calque_2" data-name="Calque 2" xmlns="http://www.w3.org/2000/svg" viewBox="0 0 45.31 35.59">
  <defs>
    <style>
      .cls-1 {
        fill: #e48c55;
      }

      .cls-2 {
        fill: #d36c49;
      }
    </style>
  </defs>
  <g id="Calque_1-2" data-name="Calque 1">
    <path id="path1873" class="cls-2" d="m.13,9.97c.21,3.61.33,6.44,6.76,9.34,6,2.64,4.55,4.74.21,9.44-3.46,3.12-8.09,4.51-6.91,6.46.74,1.23,8.57-2.27,13.29-6.56,5.55-5.03,10.13-18.04,3.48-25.51C10.45-3.37-.38.89.13,9.97Z"/>
    <path id="path1875" class="cls-1" d="m25.19,10.1c.21,3.61.33,6.44,6.76,9.34,6,2.64,4.55,4.74.21,9.44-3.46,3.12-8.09,4.51-6.91,6.46.74,1.23,8.57-2.27,13.29-6.56,5.55-5.03,10.13-18.04,3.48-25.51-6.5-6.51-17.33-2.25-16.82,6.84Z"/>
  </g>
</svg>