<?xml version="1.0" encoding="utf-8"?>
<!-- Generator: Adobe Illustrator 27.5.0, SVG Export Plug-In . SVG Version: 6.00 Build 0)  -->
<svg version="1.1"
	 id="svg2" xmlns:inkscape="http://www.inkscape.org/namespaces/inkscape" xmlns:sodipodi="http://sodipodi.sourceforge.net/DTD/sodipodi-0.dtd" xmlns:rdf="http://www.w3.org/1999/02/22-rdf-syntax-ns#" xmlns:cc="http://web.resource.org/cc/" xmlns:dc="http://purl.org/dc/elements/1.1/" xmlns:svg="http://www.w3.org/2000/svg" inkscape:version="0.44.1" sodipodi:docbase="C:\Documents and Settings\Brittany Boyer\My Documents\Pictures\Work\Wikimedia\Clean up\Convert to SVG" sodipodi:docname="Cquote2.svg" sodipodi:version="0.32"
	 xmlns="http://www.w3.org/2000/svg" xmlns:xlink="http://www.w3.org/1999/xlink" x="0px" y="0px" viewBox="0 0 451.8 338.8"
	 style="enable-background:new 0 0 451.8 338.8;" xml:space="preserve">
<style type="text/css">
	.st0{fill:#ed7752;}
</style>
<sodipodi:namedview  bordercolor="#666666" borderopacity="1.0" gridtolerance="10.0" guidetolerance="10.0" id="base" inkscape:current-layer="svg2" inkscape:cx="45.841389" inkscape:cy="15.697489" inkscape:pageopacity="0.0" inkscape:pageshadow="2" inkscape:window-height="573" inkscape:window-width="853" inkscape:window-x="176" inkscape:window-y="232" inkscape:zoom="6.2833333" objecttolerance="10.0" pagecolor="#ffffff">
	</sodipodi:namedview>
<path id="path1873" sodipodi:nodetypes="cssccsc" class="st0" d="M182.2,57.9c50.9,57.2,15.9,156.7-26.6,195.2
	c-36.1,32.8-96,59.6-101.7,50.2c-9-14.9,26.4-25.5,52.9-49.4c33.2-35.9,44.3-52-1.6-72.2c-49.2-22.2-50.1-43.9-51.7-71.5
	C49.6,40.7,132.4,8.1,182.2,57.9z"/>
<path id="path1875" sodipodi:nodetypes="cssccsc" class="st0" d="M373.9,58.9c50.9,57.2,15.9,156.7-26.6,195.2
	c-36.1,32.8-96,59.6-101.7,50.2c-9-14.9,26.4-25.5,52.9-49.4c33.2-35.9,44.3-52-1.6-72.2c-49.2-22.2-50.1-43.9-51.7-71.5
	C241.3,41.7,324.2,9.1,373.9,58.9z"/>
</svg>
