<svg width="11" height="16" viewBox="0 0 11 16" fill="none" xmlns="http://www.w3.org/2000/svg">
<path d="M10.0441 4.20859C9.56792 3.72229 8.93086 3.45054 8.25028 3.44339C7.5696 3.43586 6.92705 3.69455 6.44075 4.17075C6.43946 4.17202 6.43817 4.17329 6.43688 4.17457L5.93522 4.67624L6.66788 5.4089L7.1675 4.90929C7.45584 4.62785 7.83638 4.47554 8.23939 4.47947C8.64323 4.48371 9.02124 4.64496 9.3038 4.93352C9.58636 5.22207 9.73964 5.60339 9.7354 6.00723C9.73115 6.41106 9.56991 6.78907 9.28135 7.07163C8.68569 7.65493 7.72653 7.64486 7.14274 7.04867C7.14274 7.04867 4.2473 4.09072 4.18341 4.03718L3.77481 3.6199C3.49224 3.33135 3.33897 2.95003 3.34321 2.54619C3.34745 2.14235 3.50871 1.76434 3.79726 1.48178C4.08948 1.19563 4.4684 1.03737 4.86422 1.03615C5.25861 1.03523 5.62882 1.19118 5.90782 1.47609L5.93537 1.50423C6.09855 1.67087 6.18872 1.88639 6.18928 2.11109C6.18982 2.33296 6.1016 2.54182 5.94088 2.69921L5.92266 2.71705L6.64754 3.45741L6.66579 3.43955C7.02792 3.08495 7.22666 2.61225 7.22542 2.10853C7.2242 1.61213 7.02896 1.14007 6.6757 0.779302L6.64814 0.751162C6.1736 0.266567 5.54204 0 4.86889 0C4.86629 0 4.86363 8.49251e-06 4.86104 1.27388e-05C4.19375 0.00206793 3.55851 0.265387 3.07233 0.741472C2.58603 1.21766 2.31428 1.85473 2.30713 2.53531C2.30381 2.85096 2.35769 3.15841 2.46384 3.44593C1.84856 3.46605 1.23882 3.70712 0.765349 4.17075C0.279043 4.64695 0.0072951 5.28402 0.000144409 5.9646C-0.00700204 6.64519 0.25131 7.28782 0.727511 7.77411C1.2258 8.28298 1.88684 8.53826 2.54836 8.53826C3.19188 8.53826 3.83585 8.29668 4.33086 7.81195C4.33216 7.81068 4.33345 7.80941 4.33473 7.80812L4.65392 7.48894L3.92125 6.75628L3.60413 7.07341C3.00833 7.65486 2.05052 7.64424 1.46782 7.04919C1.18527 6.76064 1.03199 6.37932 1.03623 5.97548C1.04048 5.57164 1.20173 5.19363 1.49028 4.91107C2.03889 4.37384 2.89582 4.33996 3.48348 4.80334L6.40292 7.77411C6.90127 8.28304 7.56217 8.53832 8.22378 8.53826C8.86722 8.5382 9.51132 8.29662 10.0063 7.81195C10.4926 7.33576 10.7643 6.69869 10.7715 6.01811C10.7786 5.33752 10.5203 4.69489 10.0441 4.20859Z" fill="#E38C55"/>
<path d="M8.44089 12.1516H7.07985L5.75012 13.583L5.73966 8.56215L4.70352 7.53467L4.70994 16H5.75012V14.9831L6.18043 14.5295L7.1973 16H8.47221L6.9001 13.7708L8.44089 12.1516Z" fill="#E38C55"/>
</svg>
