<?xml version="1.0" encoding="UTF-8"?><svg id="Calque_2" xmlns="http://www.w3.org/2000/svg" viewBox="0 0 253.6734 376.8027"><g id="Components"><g id="_87b741d2-7014-450f-9624-a6a97b22a9b7_1"><path d="m236.5406,99.1131c-11.2144-11.4525-26.2174-17.8523-42.2452-18.0207-16.03-.1772-31.1622,5.9149-42.6146,17.1295-.0305.0299-.0608.0599-.0911.09l-11.8143,11.8143,17.2543,17.2544,11.7661-11.766c6.7904-6.6279,15.7522-10.2149,25.2433-10.1224,9.5104.1,18.4127,3.8975,25.067,10.693,6.6542,6.7954,10.2641,15.7755,10.1641,25.286-.0999,9.5103-3.8972,18.4126-10.6928,25.067-14.0279,13.7368-36.6164,13.4995-50.3647-.5408,0,0-68.188-69.6602-69.6926-70.9211l-9.6228-9.8271c-6.6544-6.7954-10.2639-15.7755-10.1641-25.286.0998-9.5104,3.8974-18.4126,10.693-25.067,6.8818-6.739,15.8054-10.466,25.1271-10.4948,9.2878-.0215,18.0064,3.651,24.5768,10.3607l.6489.6627c3.8429,3.9244,5.9665,9,5.9795,14.2918.0129,5.2249-2.0647,10.1438-5.8497,13.8502l-.4292.4202,17.071,17.4357.4299-.4207c8.5281-8.3509,13.2086-19.4831,13.1793-31.3458-.0288-11.6902-4.6265-22.8073-12.9459-31.3035l-.6491-.6627C145.3894,6.2777,130.5159,0,114.6632,0c-.0613,0-.1238.0002-.185.0003-15.7147.0484-30.6746,6.2496-42.1244,17.4615-11.4524,11.2144-17.8522,26.2173-18.0205,42.2451-.0781,7.4337,1.1908,14.6743,3.6905,21.4454-14.4898.4737-28.8494,6.1511-39.9997,17.0696C6.5715,109.4364.1718,124.4395.0034,140.4673c-.1683,16.028,5.915,31.162,17.1296,42.6144,11.7347,11.9838,27.3025,17.9958,42.8813,17.9958,15.1551,0,30.3205-5.6892,41.9783-17.1047.0305-.0299.0609-.0598.0911-.0902l7.5169-7.5167-17.2544-17.2544-7.4683,7.4684c-14.0312,13.6934-36.5879,13.4433-50.3104-.5704-6.6542-6.7954-10.2639-15.7755-10.1641-25.286.1-9.5104,3.8975-18.4127,10.693-25.0669,12.9198-12.6519,33.1007-13.4497,46.9401-2.5371l68.7533,69.9621c11.7362,11.9853,27.3006,17.9972,42.8815,17.9958,15.1531-.0014,30.3219-5.6907,41.9782-17.1047,11.4525-11.2144,17.8523-26.2174,18.0206-42.2452.1683-16.0279-5.915-31.162-17.1295-42.6143Z" style="fill:white;"/><polygon points="198.7847 286.172 166.7319 286.172 135.4166 319.8824 135.1703 201.6402 110.769 177.4429 110.9201 376.8027 135.4166 376.8027 135.4166 352.8552 145.5505 342.1723 169.4979 376.8027 199.5223 376.8027 162.4989 324.3039 198.7847 286.172" style="fill:white;"/></g></g></svg>