<svg width="112" height="33" viewBox="0 0 112 33" fill="#E38C55" xmlns="http://www.w3.org/2000/svg">
<path d="M33.5234 14.0467C31.934 12.4236 29.8078 11.5166 27.5363 11.4927C25.2644 11.4676 23.1198 12.331 21.4968 13.9204C21.4925 13.9246 21.4882 13.9289 21.4839 13.9332L19.8095 15.6075L22.2548 18.0529L23.9224 16.3854C24.8847 15.446 26.1548 14.9376 27.4999 14.9508C28.8478 14.965 30.1094 15.5031 31.0525 16.4662C31.9956 17.4293 32.5072 18.702 32.493 20.0498C32.4788 21.3977 31.9407 22.6593 30.9776 23.6024C28.9895 25.5493 25.7882 25.5156 23.8397 23.5258C23.8397 23.5258 14.1759 13.6533 13.9626 13.4746L12.5988 12.0818C11.6558 11.1188 11.1442 9.84607 11.1583 8.49821C11.1725 7.15036 11.7107 5.88872 12.6738 4.94563C13.6491 3.99055 14.9138 3.46234 16.2349 3.45827C17.5512 3.45522 18.7868 3.9757 19.718 4.92663L19.81 5.02057C20.3546 5.57675 20.6556 6.29607 20.6574 7.04605C20.6592 7.78653 20.3648 8.48367 19.8284 9.00895L19.7676 9.0685L22.1869 11.5396L22.2478 11.4799C23.4565 10.2964 24.1198 8.71873 24.1157 7.03751C24.1116 5.38073 23.46 3.80519 22.2809 2.60106L22.1889 2.50714C20.6051 0.889695 18.4972 0 16.2505 0C16.2418 0 16.2329 2.81029e-05 16.2243 5.62058e-05C13.9971 0.00691331 11.8769 0.885775 10.2542 2.47477C8.63116 4.06411 7.72416 6.19039 7.7003 8.4619C7.68925 9.51544 7.86908 10.5416 8.22334 11.5012C6.16979 11.5684 4.13471 12.373 2.55443 13.9204C0.931348 15.5097 0.0243557 17.636 0.000482267 19.9075C-0.0233771 22.1791 0.838777 24.3239 2.42815 25.947C4.09124 27.6454 6.29756 28.4974 8.50544 28.4974C10.6533 28.4974 12.8026 27.6911 14.4548 26.0733C14.4591 26.069 14.4634 26.0648 14.4677 26.0605L15.533 24.9952L13.0876 22.5498L12.0292 23.6083C10.0406 25.549 6.84383 25.5135 4.89902 23.5275C3.95596 22.5644 3.44439 21.2917 3.45853 19.9438C3.4727 18.596 4.01089 17.3343 4.97397 16.3913C6.80502 14.5982 9.66513 14.4851 11.6265 16.0317L21.3705 25.947C23.0338 27.6456 25.2396 28.4976 27.4478 28.4974C29.5953 28.4972 31.7451 27.6909 33.3971 26.0733C35.0202 24.4839 35.9272 22.3577 35.951 20.0861C35.9749 17.8146 35.1127 15.6698 33.5234 14.0467Z" fill="#E38C55"/>
<path d="M56.9729 32.4561L60.1115 25.5296L54.4566 13.8951H58.4881L62.0325 21.6875L65.3064 13.8951H69.1484L60.7879 32.4561L56.9729 32.4561Z" fill="#E38C55"/>
<path d="M78.7805 27.2071H75.182L69.7436 13.8951H73.6938L76.9948 22.8239L80.1604 13.8951H83.9484L78.7805 27.2071Z" fill="#E38C55"/>
<path d="M98.6942 20.5511C98.6942 24.6367 95.6909 27.613 91.7136 27.613C87.7362 27.613 84.7329 24.6367 84.7329 20.5511C84.7329 16.4385 87.7362 13.4893 91.7136 13.4893C95.6909 13.4893 98.6942 16.4385 98.6942 20.5511ZM95.0957 20.5511C95.0957 18.0349 93.4723 16.7632 91.7136 16.7632C89.9549 16.7632 88.3315 18.0348 88.3315 20.5511C88.3315 23.0404 89.9549 24.3391 91.7136 24.3391C93.4723 24.3391 95.0957 23.0674 95.0957 20.5511Z" fill="#E38C55"/>
<path d="M103.483 22.8239C103.564 23.8791 104.349 24.8532 105.918 24.8532C107.109 24.8532 107.677 24.2309 107.677 23.5274C107.677 22.9321 107.271 22.4451 106.243 22.2287L104.484 21.8228C101.914 21.2546 100.751 19.7124 100.751 17.8455C100.751 15.4645 102.861 13.4893 105.729 13.4893C109.517 13.4893 110.789 15.8974 110.951 17.3314L107.948 18.0078C107.839 17.2232 107.271 16.222 105.756 16.222C104.809 16.222 104.051 16.7902 104.051 17.5478C104.051 18.1972 104.538 18.603 105.269 18.7383L107.163 19.1442C109.787 19.6853 111.113 21.2817 111.113 23.2298C111.113 25.3943 109.436 27.613 105.945 27.613C101.941 27.613 100.561 25.0155 100.399 23.5003L103.483 22.8239Z" fill="#E38C55"/>
<path d="M53.9294 13.9052H49.2209L44.6207 18.8572L44.5845 7.80455L41 4.25L41.0222 27.2187H44.6207V23.7008L46.1093 22.1316L49.6272 27.2187H54.0377L48.599 19.5067L53.9294 13.9052Z" fill="#E38C55"/>
</svg>
