<svg width="147" height="40" viewBox="0 0 147 40" fill="none" xmlns="http://www.w3.org/2000/svg">
<g filter="url(#filter0_dd_179_46024)">
<path d="M36.5476 16.798C34.9583 15.1749 32.832 14.2679 30.5605 14.244C28.2887 14.2189 26.1441 15.0823 24.521 16.6717C24.5167 16.6759 24.5124 16.6802 24.5081 16.6845L22.8337 18.3588L25.279 20.8042L26.9466 19.1367C27.9089 18.1973 29.179 17.6889 30.5241 17.7021C31.872 17.7162 33.1337 18.2544 34.0767 19.2175C35.0198 20.1806 35.5314 21.4533 35.5172 22.8011C35.5031 24.149 34.9649 25.4106 34.0018 26.3537C32.0137 28.3006 28.8124 28.2669 26.8639 26.2771C26.8639 26.2771 17.2001 16.4046 16.9869 16.2259L15.6231 14.8331C14.68 13.8701 14.1684 12.5974 14.1826 11.2495C14.1967 9.90165 14.7349 8.64002 15.698 7.69693C16.6733 6.74185 17.938 6.21364 19.2591 6.20957C20.5754 6.20652 21.8111 6.727 22.7422 7.67793L22.8342 7.77186C23.3788 8.32805 23.6798 9.04737 23.6816 9.79735C23.6835 10.5378 23.389 11.235 22.8526 11.7603L22.7918 11.8198L25.2111 14.2909L25.2721 14.2312C26.4807 13.0477 27.144 11.47 27.1399 9.78881C27.1358 8.13203 26.4842 6.55648 25.3052 5.35236L25.2132 5.25844C23.6293 3.64099 21.5214 2.7513 19.2747 2.7513C19.266 2.7513 19.2572 2.75133 19.2485 2.75135C17.0213 2.75821 14.9012 3.63707 13.2785 5.22606C11.6554 6.81541 10.7484 8.94169 10.7245 11.2132C10.7135 12.2667 10.8933 13.2929 11.2476 14.2525C9.19403 14.3196 7.15894 15.1243 5.57866 16.6717C3.95558 18.261 3.04859 20.3873 3.02471 22.6588C3.00085 24.9304 3.86301 27.0752 5.45238 28.6983C7.11547 30.3967 9.32179 31.2487 11.5297 31.2487C13.6775 31.2487 15.8268 30.4424 17.479 28.8246C17.4833 28.8203 17.4876 28.8161 17.4919 28.8118L18.5572 27.7465L16.1119 25.3011L15.0534 26.3596C13.0649 28.3003 9.86806 28.2648 7.92325 26.2788C6.98019 25.3157 6.46862 24.043 6.48276 22.6951C6.49694 21.3473 7.03512 20.0856 7.99821 19.1426C9.82925 17.3495 12.6894 17.2364 14.6507 18.783L24.3947 28.6983C26.058 30.3969 28.2638 31.2489 30.472 31.2487C32.6196 31.2485 34.7693 30.4422 36.4213 28.8246C38.0444 27.2352 38.9514 25.1089 38.9753 22.8374C38.9991 20.5659 38.137 18.4211 36.5476 16.798Z" fill="#E38C55"/>
</g>
<g filter="url(#filter1_dd_179_46024)">
<path d="M61.9729 35.2061L65.1115 28.2796L59.4566 16.6451H63.4881L67.0325 24.4375L70.3064 16.6451H74.1484L65.7879 35.2061L61.9729 35.2061Z" fill="#E38C55"/>
<path d="M83.7805 29.9571H80.182L74.7436 16.6451H78.6938L81.9948 25.5739L85.1604 16.6451H88.9484L83.7805 29.9571Z" fill="#E38C55"/>
<path d="M103.694 23.3011C103.694 27.3867 100.691 30.3629 96.7136 30.3629C92.7362 30.3629 89.7329 27.3867 89.7329 23.3011C89.7329 19.1885 92.7362 16.2393 96.7136 16.2393C100.691 16.2393 103.694 19.1885 103.694 23.3011ZM100.096 23.3011C100.096 20.7848 98.4723 19.5131 96.7136 19.5131C94.9549 19.5131 93.3315 20.7848 93.3315 23.3011C93.3315 25.7903 94.9549 27.0891 96.7136 27.0891C98.4723 27.0891 100.096 25.8174 100.096 23.3011Z" fill="#E38C55"/>
<path d="M108.483 25.5739C108.564 26.6291 109.349 27.6031 110.918 27.6031C112.109 27.6031 112.677 26.9808 112.677 26.2774C112.677 25.6821 112.271 25.1951 111.243 24.9786L109.484 24.5728C106.914 24.0046 105.751 22.4623 105.751 20.5954C105.751 18.2144 107.861 16.2393 110.729 16.2393C114.517 16.2393 115.789 18.6473 115.951 20.0813L112.948 20.7578C112.839 19.9731 112.271 18.972 110.756 18.972C109.809 18.972 109.051 19.5402 109.051 20.2978C109.051 20.9472 109.538 21.353 110.269 21.4883L112.163 21.8942C114.787 22.4353 116.113 24.0317 116.113 25.9797C116.113 28.1443 114.436 30.3629 110.945 30.3629C106.941 30.3629 105.561 27.7655 105.399 26.2503L108.483 25.5739Z" fill="#E38C55"/>
<path d="M58.9294 16.6552H54.2209L49.6207 21.6072L49.5845 10.5546L46 7L46.0222 29.9687H49.6207V26.4508L51.1093 24.8816L54.6272 29.9687H59.0377L53.599 22.2567L58.9294 16.6552Z" fill="#E38C55"/>
</g>
<defs>
<filter id="filter0_dd_179_46024" x="0.024231" y="0.751297" width="41.9515" height="34.4974" filterUnits="userSpaceOnUse" color-interpolation-filters="sRGB">
<feFlood flood-opacity="0" result="BackgroundImageFix"/>
<feColorMatrix in="SourceAlpha" type="matrix" values="0 0 0 0 0 0 0 0 0 0 0 0 0 0 0 0 0 0 127 0" result="hardAlpha"/>
<feOffset dy="1"/>
<feGaussianBlur stdDeviation="1"/>
<feColorMatrix type="matrix" values="0 0 0 0 0.0627451 0 0 0 0 0.0941176 0 0 0 0 0.156863 0 0 0 0.06 0"/>
<feBlend mode="normal" in2="BackgroundImageFix" result="effect1_dropShadow_179_46024"/>
<feColorMatrix in="SourceAlpha" type="matrix" values="0 0 0 0 0 0 0 0 0 0 0 0 0 0 0 0 0 0 127 0" result="hardAlpha"/>
<feOffset dy="1"/>
<feGaussianBlur stdDeviation="1.5"/>
<feColorMatrix type="matrix" values="0 0 0 0 0.0627451 0 0 0 0 0.0941176 0 0 0 0 0.156863 0 0 0 0.1 0"/>
<feBlend mode="normal" in2="effect1_dropShadow_179_46024" result="effect2_dropShadow_179_46024"/>
<feBlend mode="normal" in="SourceGraphic" in2="effect2_dropShadow_179_46024" result="shape"/>
</filter>
<filter id="filter1_dd_179_46024" x="43" y="5" width="76.1132" height="34.2061" filterUnits="userSpaceOnUse" color-interpolation-filters="sRGB">
<feFlood flood-opacity="0" result="BackgroundImageFix"/>
<feColorMatrix in="SourceAlpha" type="matrix" values="0 0 0 0 0 0 0 0 0 0 0 0 0 0 0 0 0 0 127 0" result="hardAlpha"/>
<feOffset dy="1"/>
<feGaussianBlur stdDeviation="1"/>
<feColorMatrix type="matrix" values="0 0 0 0 0 0 0 0 0 0 0 0 0 0 0 0 0 0 0.06 0"/>
<feBlend mode="normal" in2="BackgroundImageFix" result="effect1_dropShadow_179_46024"/>
<feColorMatrix in="SourceAlpha" type="matrix" values="0 0 0 0 0 0 0 0 0 0 0 0 0 0 0 0 0 0 127 0" result="hardAlpha"/>
<feOffset dy="1"/>
<feGaussianBlur stdDeviation="1.5"/>
<feColorMatrix type="matrix" values="0 0 0 0 0 0 0 0 0 0 0 0 0 0 0 0 0 0 0.1 0"/>
<feBlend mode="normal" in2="effect1_dropShadow_179_46024" result="effect2_dropShadow_179_46024"/>
<feBlend mode="normal" in="SourceGraphic" in2="effect2_dropShadow_179_46024" result="shape"/>
</filter>
</defs>
</svg>
