<?xml version="1.0" encoding="UTF-8"?><svg id="Calque_2" xmlns="http://www.w3.org/2000/svg" viewBox="0 0 255.8565 202.8078"><g id="Components"><path id="e2516762-cc78-4d9b-a749-1f30dc71ef27_1" d="m238.5762,99.9661c-11.3109-11.551-26.443-18.006-42.6087-18.1757-16.1679-.1787-31.4304,5.9658-42.9813,17.277-.0307.0301-.0613.0604-.0919.0908l-11.916,11.916,17.4027,17.4029,11.8674-11.8673c6.8488-6.685,15.8877-10.3029,25.4605-10.2095,9.5922.1009,18.5712,3.931,25.2827,10.785,6.7115,6.8538,10.3524,15.9113,10.2516,25.5036-.1008,9.5922-3.9308,18.571-10.7848,25.2827-14.1487,13.855-36.9315,13.6157-50.7981-.5455,0,0-68.7748-70.2597-70.2924-71.5315l-9.7056-9.9117c-6.7116-6.8538-10.3522-15.9113-10.2516-25.5036.1007-9.5923,3.931-18.571,10.785-25.2827,6.941-6.797,15.9415-10.5561,25.3433-10.5851,9.3677-.0217,18.1614,3.6824,24.7883,10.4499l.6545.6685c3.876,3.9582,6.0178,9.0774,6.031,14.4148.013,5.2698-2.0824,10.2311-5.9,13.9694l-.4329.4238,17.2179,17.5858.4336-.4243c8.6015-8.4228,13.3223-19.6507,13.2927-31.6155-.029-11.7908-4.6663-23.0035-13.0573-31.5729l-.6547-.6684C146.6406,6.3317,131.6391,0,115.6499,0c-.0618,0-.1248.0002-.1866.0004-15.8499.0488-30.9386,6.3034-42.4869,17.6118-11.551,11.3109-18.0058,26.443-18.1756,42.6087-.0787,7.4977,1.2011,14.8006,3.7223,21.6299-14.6145.4778-29.0976,6.204-40.344,17.2165C6.6281,110.3782.1733,125.5103.0034,141.6761c-.1698,16.1659,5.9659,31.4301,17.277,42.9811,11.8357,12.0869,27.5375,18.1506,43.2503,18.1506,15.2855,0,30.5815-5.7382,42.3396-17.2519.0307-.0301.0614-.0603.0919-.0909l7.5816-7.5814-17.4029-17.4029-7.5326,7.5327c-14.152,13.8112-36.9028,13.559-50.7434-.5753-6.7115-6.8539-10.3522-15.9112-10.2516-25.5036.1009-9.5923,3.931-18.5711,10.785-25.2826,13.031-12.7608,33.3856-13.5655,47.3441-2.5589l69.345,70.5642c11.8372,12.0884,27.5356,18.152,43.2505,18.1506,15.2835-.0014,30.5828-5.7397,42.3395-17.2519,11.551-11.3109,18.006-26.443,18.1757-42.6088.1698-16.1658-5.9659-31.4301-17.2769-42.9811Z" style="fill:#e38c55;"/></g></svg>