<?xml version="1.0" encoding="UTF-8"?>
<svg id="Calque_2" data-name="Calque 2" xmlns="http://www.w3.org/2000/svg" viewBox="0 0 502.53 134.03">
  <defs>
    <style>
      .cls-1 {
        fill: #e48c55;
      }

      .cls-2 {
        fill: #a4bcc0;
      }

      .cls-3 {
        fill: #d36c49;
      }
    </style>
  </defs>
  <g id="Calque_1-2" data-name="Calque 1">
    <path id="path1873" class="cls-1" d="m45.17,25.62c-.21-3.61-.33-6.44-6.76-9.34-6-2.64-4.55-4.74-.21-9.44,3.46-3.12,8.09-4.51,6.91-6.46-.74-1.23-8.57,2.27-13.29,6.56-5.55,5.03-10.13,18.04-3.48,25.51,6.51,6.51,17.33,2.25,16.82-6.84Z"/>
    <path id="path1875" class="cls-3" d="m20.12,25.49c-.21-3.61-.33-6.44-6.76-9.34-6-2.64-4.55-4.74-.21-9.44,3.46-3.12,8.09-4.51,6.91-6.46-.74-1.23-8.57,2.27-13.29,6.56C1.22,11.84-3.35,24.84,3.3,32.32c6.5,6.51,17.33,2.25,16.82-6.84Z"/>
    <g>
      <path class="cls-2" d="m93.69,56.86c-3.45-.15-4.1-.2-5.7-.2s-2.9.05-5.45.2v-1.25c3.95-.6,4-1.45,3.65-6.2l-1.7-21.15-12,26.8h-1.45l-11.45-26-1.95,22.55c-.3,3.1-.15,3.45,3.8,4v1.25c-2.25-.1-2.75-.2-4.7-.2-1.45,0-3,.1-5,.2v-1.25c1.9-.3,2.7-.55,3.1-1.3.45-.8.45-2.15.7-5.1l1.7-18.65c.5-5.95-.1-5.9-3.65-6.45v-1.25h7.5l11.75,26.45,11.55-26.45h7.55v1.25c-3.9.45-4.1,1.05-3.65,6l1.7,19.1c.5,5.45.55,5.95,3.7,6.4v1.25Z"/>
      <path class="cls-2" d="m107.19,33.75c4.7,0,7.8,2.65,7.8,8.1l-.05,10.35c0,3.1.85,3.55,3.7,3.55v1c-1.2.4-2.4.6-3.35.6-2.25,0-3.8-1.05-3.8-4v-1.35c-2.2,3-4.75,5.35-8.35,5.35-3,0-5.25-1.8-5.25-4.9,0-4.35,4.5-7.9,13.65-9.8-.05-3.65-1.6-6.35-5.75-6.35-2.7,0-4.9,1.1-6.45,2.45l-.8-.85c2.15-2.3,4.7-4.15,8.65-4.15Zm-2.35,20.95c2.85,0,5.2-2.45,6.65-4.5l.05-5.95c-5.95,1.3-10.1,3.6-10.1,7.15,0,1.85,1.15,3.3,3.4,3.3Z"/>
      <path class="cls-2" d="m133.79,30.45l-.6.85-6-4.6-6.05,4.6-.65-.85,6.3-7h.8l6.2,7Zm-4.25,20.5c0,1.95.1,3.05.45,3.7.45.75,1.45.9,3.1,1.1v1.1c-2.3-.15-2.95-.2-5.3-.2s-3,.05-5.3.2v-1.1c1.6-.2,2.55-.35,3-1s.5-1.75.5-3.85v-9.6c0-2.5,0-3.6-.5-4.15-.4-.45-1.1-.55-2.8-.75v-1.1c2.75-.25,4.25-.65,6.3-1.3l.8.45c-.2,1.65-.25,3.55-.25,5.85v10.65Z"/>
      <path class="cls-2" d="m139.99,51.36v-14.9h-3.35v-1.1c3.3-.6,4.8-3.2,5.6-6.85h1.3v6.05l7.75-.3v2.2h-7.75v13.3c0,4.25,1.2,5.4,3.85,5.4,1.25,0,2.4-.3,3.45-.7l.5,1.25c-1.75.9-3.7,1.65-6,1.65-3.7,0-5.35-2-5.35-6Z"/>
      <path class="cls-2" d="m161.09,40.5c2-3.2,4.4-6.25,8.1-6.25.35,0,.8,0,1.3.1l-.55,3.6c-3.75,0-6.65,1-8.85,4v9c0,1.95.1,3.05.45,3.7.45.75,1.45.9,4.2,1.1v1.1c-3.4-.15-4.05-.2-6.4-.2s-3,.05-5.3.2v-1.1c1.6-.2,2.55-.35,3-1s.5-1.75.5-3.85v-9.8c0-2.45,0-3.55-.5-4.15-.4-.45-1.1-.55-2.8-.7v-1.15c2.7-.2,4.2-.6,6.25-1.3l.85.5c-.2,1.65-.25,3.55-.25,5.85v.35Z"/>
      <path class="cls-2" d="m180.99,50.96c0,1.95.1,3.05.45,3.7.45.75,1.45.9,3.1,1.1v1.1c-2.3-.15-2.95-.2-5.3-.2s-3,.05-5.3.2v-1.1c1.6-.2,2.55-.35,3-1s.5-1.75.5-3.85v-9.6c0-2.5,0-3.6-.5-4.15-.4-.45-1.1-.55-2.8-.75v-1.1c2.75-.25,4.2-.65,6.3-1.3l.8.45c-.2,1.65-.25,3.55-.25,5.85v10.65Zm-4.95-24.45c0-1.45,1.15-2.6,2.65-2.6s2.65,1.15,2.65,2.6-1.2,2.65-2.65,2.65-2.65-1.15-2.65-2.65Z"/>
      <path class="cls-2" d="m190.09,40.15c0-3.75,3.5-6.4,8.3-6.4,2.2,0,4.9.45,6.95,1.65l-1.15,5.65h-1.05l-1.25-4.85c-1.3-.65-2.55-.9-3.9-.9-3.1,0-4.6,1.65-4.6,3.75,0,2.3,1.95,3.35,5.25,4.75,3.85,1.65,7,3.25,7,7.1,0,4.1-4.2,6.45-9.05,6.45-2.25,0-5.05-.45-7.25-1.7l1.2-5.85h1.05l1.35,5.15c1.4.6,2.6.85,4.1.85,3.35,0,5.25-1.65,5.25-3.95,0-2.55-2.1-3.45-5.6-5-3.8-1.65-6.6-3.15-6.6-6.7Z"/>
      <path class="cls-2" d="m220.94,57.36c-6.55,0-10.05-4.8-10.05-11.1,0-7.05,4.2-12.5,11.05-12.5,5.45,0,8.3,3.6,8.3,9.05v1.95h-15.7v.4c0,5.7,2.6,9.55,8,9.55,3.1,0,5.35-1.3,6.9-2.75l.85.95c-2.1,2.35-5.1,4.45-9.35,4.45Zm-6.3-13.95l12-.3c0-4.15-1.35-7.85-5.5-7.85-3.7,0-6.05,3.2-6.5,8.15Z"/>
      <path class="cls-2" d="m241.49,40.5c2-3.2,4.4-6.25,8.1-6.25.35,0,.8,0,1.3.1l-.55,3.6c-3.75,0-6.65,1-8.85,4v9c0,1.95.1,3.05.45,3.7.45.75,1.45.9,4.2,1.1v1.1c-3.4-.15-4.05-.2-6.4-.2s-3,.05-5.3.2v-1.1c1.6-.2,2.55-.35,3-1s.5-1.75.5-3.85v-9.8c0-2.45,0-3.55-.5-4.15-.4-.45-1.1-.55-2.8-.7v-1.15c2.7-.2,4.2-.6,6.25-1.3l.85.5c-.2,1.65-.25,3.55-.25,5.85v.35Z"/>
      <path class="cls-2" d="m276.29,67.61c-3.8-.15-4.45-.2-6.8-.2s-3,.05-5.35.2v-1.1c1.6-.2,2.65-.3,3.05-1,.45-.65.5-1.75.5-3.85v-20.35c0-2.5,0-3.6-.5-4.15-.4-.45-1.1-.55-2.85-.75v-1.1c2.8-.25,4.3-.65,6.35-1.3l.8.45c-.1,1.05-.2,2.15-.2,3.4,1.7-1.8,4.35-4.1,8.4-4.1,5.4,0,8.6,4.2,8.6,10.3,0,7.55-4.8,13.3-12.1,13.3-1.9,0-3.55-.4-4.95-.9v5.25c0,1.95.1,3.05.45,3.7.45.75,1.45.9,4.6,1.1v1.1Zm-5.05-14.25c1.35,1.45,3.05,2.45,5.55,2.45,4.8,0,7.85-4,7.85-10.35,0-5-2.05-8.9-6.8-8.9-2.7,0-4.8,1.15-6.6,2.65v14.15Z"/>
      <path class="cls-2" d="m293.34,46.16c0-7.25,5.2-12.4,11.4-12.4s10.9,4.35,10.9,11.5-5.15,12.1-11.45,12.1c-5.85,0-10.85-4-10.85-11.2Zm18.4-.25c0-5.9-2.45-10.6-7.35-10.6-4.5,0-7.2,3.85-7.2,10.05s2.45,10.4,7.35,10.4c4.5,0,7.2-3.6,7.2-9.85Z"/>
      <path class="cls-2" d="m341.94,50.06c0,4.95.55,5.25,4.05,5.25v1.1l-7.6.95v-3.5c-2.25,2-4.6,3.5-7.9,3.5-5.25,0-7.6-3.2-7.6-8.95v-7.75c0-4.5-.55-4.75-3.95-4.75v-1.1l7.45-1.05v13.7c0,5.55,2.4,7.1,5.95,7.1,2.55,0,4.45-.9,6.05-2.1v-11.8c0-4.5-.55-4.75-3.9-4.75v-1.1l7.45-1.05v16.3Z"/>
      <path class="cls-2" d="m356.79,40.5c2-3.2,4.4-6.25,8.1-6.25.35,0,.8,0,1.3.1l-.55,3.6c-3.75,0-6.65,1-8.85,4v9c0,1.95.1,3.05.45,3.7.45.75,1.45.9,4.2,1.1v1.1c-3.4-.15-4.05-.2-6.4-.2s-3,.05-5.3.2v-1.1c1.6-.2,2.55-.35,3-1s.5-1.75.5-3.85v-9.8c0-2.45,0-3.55-.5-4.15-.4-.45-1.1-.55-2.8-.7v-1.15c2.7-.2,4.2-.6,6.25-1.3l.85.5c-.2,1.65-.25,3.55-.25,5.85v.35Z"/>
    </g>
    <g>
      <path class="cls-2" d="m205.9,92.61c0-3.75,3.5-6.4,8.3-6.4,2.2,0,4.9.45,6.95,1.65l-1.15,5.65h-1.05l-1.25-4.85c-1.3-.65-2.55-.9-3.9-.9-3.1,0-4.6,1.65-4.6,3.75,0,2.3,1.95,3.35,5.25,4.75,3.85,1.65,7,3.25,7,7.1,0,4.1-4.2,6.45-9.05,6.45-2.25,0-5.05-.45-7.25-1.7l1.2-5.85h1.05l1.35,5.15c1.4.6,2.6.85,4.1.85,3.35,0,5.25-1.65,5.25-3.95,0-2.55-2.1-3.45-5.6-5-3.8-1.65-6.6-3.15-6.6-6.7Z"/>
      <path class="cls-2" d="m229.1,78.36c-.25.1-.5.15-.75.15-1.55,0-2.5-1.25-2.5-2.45,0-1.35.85-2.75,2.65-2.75,1.5,0,2.9,1.3,2.9,3.5,0,3.25-2.15,6.65-5.35,8.8l-.7-1.05c2.15-1.75,3.55-4,3.75-6.2Z"/>
      <path class="cls-2" d="m243.3,86.21c4.7,0,7.8,2.65,7.8,8.1l-.05,10.35c0,3.1.85,3.55,3.7,3.55v1c-1.2.4-2.4.6-3.35.6-2.25,0-3.8-1.05-3.8-4v-1.35c-2.2,3-4.75,5.35-8.35,5.35-3,0-5.25-1.8-5.25-4.9,0-4.35,4.5-7.9,13.65-9.8-.05-3.65-1.6-6.35-5.75-6.35-2.7,0-4.9,1.1-6.45,2.45l-.8-.85c2.15-2.3,4.7-4.15,8.65-4.15Zm-2.35,20.95c2.85,0,5.2-2.45,6.65-4.5l.05-5.95c-5.95,1.3-10.1,3.6-10.1,7.15,0,1.85,1.15,3.3,3.4,3.3Z"/>
      <path class="cls-2" d="m265.65,87.06l7.55-.35v2.2h-7.55v14.45c0,2,.1,3.1.45,3.75.45.75,1.45.9,3.1,1.1v1.1c-2.3-.15-3.05-.2-5.3-.2s-3,.05-5.35.2v-1.1c1.6-.2,2.6-.35,3.05-1s.5-1.75.5-3.85v-14.45h-4.4v-1.25l4.4-.45c.05-10.45,4.75-13.9,10.1-13.9,1.3,0,2.45.2,3.75.55l-1.35,6h-1.05l-1.3-4.6c-.55-.2-1.1-.3-1.65-.3-2.75,0-4.95,3.05-4.95,9.8v2.3Z"/>
      <path class="cls-2" d="m282.45,87.06l7.55-.35v2.2h-7.55v14.45c0,2,.1,3.1.45,3.75.45.75,1.45.9,3.1,1.1v1.1c-2.3-.15-3.05-.2-5.3-.2s-3,.05-5.35.2v-1.1c1.6-.2,2.6-.35,3.05-1s.5-1.75.5-3.85v-14.45h-4.4v-1.25l4.4-.45c.05-10.45,4.75-13.9,10.1-13.9,1.3,0,2.45.2,3.75.55l-1.35,6h-1.05l-1.3-4.6c-.55-.2-1.1-.3-1.65-.3-2.75,0-4.95,3.05-4.95,9.8v2.3Z"/>
      <path class="cls-2" d="m299.25,92.96c2-3.2,4.4-6.25,8.1-6.25.35,0,.8,0,1.3.1l-.55,3.6c-3.75,0-6.65,1-8.85,4v9c0,1.95.1,3.05.45,3.7.45.75,1.45.9,4.2,1.1v1.1c-3.4-.15-4.05-.2-6.4-.2s-3,.05-5.3.2v-1.1c1.6-.2,2.55-.35,3-1s.5-1.75.5-3.85v-9.8c0-2.45,0-3.55-.5-4.15-.4-.45-1.1-.55-2.8-.7v-1.15c2.7-.2,4.2-.6,6.25-1.3l.85.5c-.2,1.65-.25,3.55-.25,5.85v.35Z"/>
      <path class="cls-2" d="m321.55,86.21c4.7,0,7.8,2.65,7.8,8.1l-.05,10.35c0,3.1.85,3.55,3.7,3.55v1c-1.2.4-2.4.6-3.35.6-2.25,0-3.8-1.05-3.8-4v-1.35c-2.2,3-4.75,5.35-8.35,5.35-3,0-5.25-1.8-5.25-4.9,0-4.35,4.5-7.9,13.65-9.8-.05-3.65-1.6-6.35-5.75-6.35-2.7,0-4.9,1.1-6.45,2.45l-.8-.85c2.15-2.3,4.7-4.15,8.65-4.15Zm-2.35,20.95c2.85,0,5.2-2.45,6.65-4.5l.05-5.95c-5.95,1.3-10.1,3.6-10.1,7.15,0,1.85,1.15,3.3,3.4,3.3Z"/>
      <path class="cls-2" d="m343.9,103.41c0,1.95.1,3.05.45,3.7.45.75,1.45.9,3.1,1.1v1.1c-2.3-.15-2.95-.2-5.3-.2s-3,.05-5.3.2v-1.1c1.6-.2,2.55-.35,3-1s.5-1.75.5-3.85v-9.6c0-2.5,0-3.6-.5-4.15-.4-.45-1.1-.55-2.8-.75v-1.1c2.75-.25,4.25-.65,6.3-1.3l.8.45c-.1,1-.2,2.05-.2,3.25,2.3-2.2,4.7-3.95,8.45-3.95,5.1,0,7.75,3.2,7.75,8.95v8.25c0,1.95.05,3.05.4,3.7.45.75,1.45.9,3.1,1.1v1.1c-2.3-.15-2.95-.2-5.3-.2s-3,.05-5.3.2v-1.1c1.6-.2,2.55-.35,3.05-1,.4-.65.5-1.75.5-3.85v-7c0-5.65-2.35-7.35-5.95-7.35-2.95,0-5.15,1.1-6.75,2.55v11.85Z"/>
      <path class="cls-2" d="m377.55,109.81c-5.7,0-9.65-4.35-9.65-11.25s4.2-12.35,11.7-12.35c2.6,0,4.7.65,6.45,1.6l-1.5,6.5h-1.05l-1.25-5.85c-1.3-.55-2.5-.7-3.3-.7-4.75,0-7.4,4.5-7.4,9.85,0,5.9,2.85,9.55,7.55,9.55,3.15,0,5.2-1.5,6.5-3.1l.9.9c-1.9,2.6-4.8,4.85-8.95,4.85Z"/>
      <path class="cls-2" d="m413.3,103.41c0,1.95.05,3.05.45,3.7.45.75,1.4.9,3.1,1.1v1.1c-2.35-.15-3-.2-5.35-.2s-3,.05-5.3.2v-1.1c1.6-.2,2.55-.35,3.05-1,.4-.65.5-1.75.5-3.85v-7.25c0-5.55-2.4-7.1-6.05-7.1-3.05,0-5.2,1.1-6.9,2.5v11.9c0,1.95.1,3.05.45,3.7.45.75,1.45.9,3.1,1.1v1.1c-2.3-.15-2.95-.2-5.3-.2s-3,.05-5.35.2v-1.1c1.6-.2,2.6-.35,3.05-1,.4-.65.5-1.75.5-3.85v-22.75c0-2.5,0-3.6-.5-4.15-.4-.45-1.1-.55-2.85-.7v-1.15c2.75-.2,4.25-.65,6.35-1.3l.8.45c-.2,1.65-.25,3.55-.25,5.85v10.55c2.35-2.2,4.8-3.95,8.55-3.95,5.25,0,7.95,3.2,7.95,8.95v8.25Z"/>
      <path class="cls-2" d="m427.9,103.41c0,1.95.1,3.05.45,3.7.45.75,1.45.9,3.1,1.1v1.1c-2.3-.15-2.95-.2-5.3-.2s-3,.05-5.3.2v-1.1c1.6-.2,2.55-.35,3-1s.5-1.75.5-3.85v-9.6c0-2.5,0-3.6-.5-4.15-.4-.45-1.1-.55-2.8-.75v-1.1c2.75-.25,4.2-.65,6.3-1.3l.8.45c-.2,1.65-.25,3.55-.25,5.85v10.65Zm-4.95-24.45c0-1.45,1.15-2.6,2.65-2.6s2.65,1.15,2.65,2.6-1.2,2.65-2.65,2.65-2.65-1.15-2.65-2.65Z"/>
      <path class="cls-2" d="m442.95,92.96c2-3.2,4.4-6.25,8.1-6.25.35,0,.8,0,1.3.1l-.55,3.6c-3.75,0-6.65,1-8.85,4v9c0,1.95.1,3.05.45,3.7.45.75,1.45.9,4.2,1.1v1.1c-3.4-.15-4.05-.2-6.4-.2s-3,.05-5.3.2v-1.1c1.6-.2,2.55-.35,3-1s.5-1.75.5-3.85v-9.8c0-2.45,0-3.55-.5-4.15-.4-.45-1.1-.55-2.8-.7v-1.15c2.7-.2,4.2-.6,6.25-1.3l.85.5c-.2,1.65-.25,3.55-.25,5.85v.35Z"/>
    </g>
    <path id="path1873-2" data-name="path1873" class="cls-3" d="m457.36,108.42c.21,3.61.33,6.44,6.76,9.34,6,2.64,4.55,4.74.21,9.44-3.46,3.12-8.09,4.51-6.91,6.46.74,1.23,8.57-2.27,13.29-6.56,5.55-5.03,10.13-18.04,3.48-25.51-6.51-6.51-17.33-2.25-16.82,6.84Z"/>
    <path id="path1875-2" data-name="path1875" class="cls-1" d="m482.41,108.55c.21,3.61.33,6.44,6.76,9.34,6,2.64,4.55,4.74.21,9.44-3.46,3.12-8.09,4.51-6.91,6.46.74,1.23,8.57-2.27,13.29-6.56,5.55-5.03,10.13-18.04,3.48-25.51-6.5-6.51-17.33-2.25-16.82,6.84Z"/>
  </g>
</svg>