<?xml version="1.0" encoding="UTF-8"?><svg id="Calque_2" xmlns="http://www.w3.org/2000/svg" viewBox="0 0 540.8979 394.292"><g id="Components"><path id="_6caadd19-312b-4a5e-b049-5782050480e1_1" d="m515.7573,137.6786c-.165-.1616-.3384-.3095-.5043-.47-.0326-.0314-.0622-.0651-.0942-.0965-15.5532-15.23-35.5825-23.1491-55.7937-23.8098,3.4867-9.4444,5.2565-19.5439,5.1479-29.9129-.235-22.3564-9.1617-43.2834-25.1358-58.9257C423.4066,8.8248,402.5395.1753,380.62.1079c-.0854-.0006-.1725-.0006-.2581-.0006-22.112,0-42.8586,8.7563-58.446,24.675l-.9054.9246c-11.6042,11.8509-18.0174,27.3573-18.0577,43.6632-.0408,16.5469,6.4877,32.0744,18.3832,43.7226l.5993.5871,23.8115-24.3203-.5985-.5859c-5.2796-5.1699-8.1778-12.0308-8.1595-19.3189.0183-7.3817,2.9804-14.4607,8.3405-19.9351l.9052-.9246c9.1646-9.3588,21.3256-14.4813,34.2807-14.4516,13.0025.0405,25.4496,5.239,35.0485,14.6389,9.479,9.2817,14.7757,21.6991,14.915,34.9646s-4.8955,25.7914-14.1775,35.2701l-13.422,13.7069c-1.0519.8817-25.4579,25.7183-49.5493,50.282-2.7734-16.8033-10.5849-32.3365-22.7487-44.758-15.6423-15.9747-36.5693-24.9017-58.9255-25.1364-4.907-.0543-9.7477.3375-14.493,1.1085-.2122.0331-.4232.0685-.635.1028-.7858.1342-1.569.2753-2.3488.4317-16.566,3.1877-31.7637,11.2907-43.8174,23.6002-12.1193,12.3763-19.9188,27.841-22.7191,44.5741-24.1011-24.5733-48.5265-49.4305-49.5787-50.3117l-13.4222-13.7075c-9.282-9.4787-14.3168-22.0046-14.1775-35.2701.1393-13.2655,5.4363-25.6829,14.9153-34.9646,9.5989-9.3999,22.046-14.5984,35.0483-14.6383,12.9551-.0303,25.1161,5.0923,34.2807,14.4516l.9052.924c5.3604,5.4743,8.3223,12.5539,8.3405,19.9351.0183,7.2881-2.8799,14.1489-8.1592,19.3189l-.5988.5865,23.8115,24.3198.5996-.5865c11.8952-11.6482,18.424-27.1763,18.3829-43.7226-.04-16.3065-6.4531-31.8128-18.0577-43.6638l-.9054-.924C203.4396,8.7563,182.693,0,160.581,0c-.0857,0-.1725.0006-.2581.0006-21.9195.0674-42.7863,8.7169-58.757,24.3563-15.9744,15.6423-24.9011,36.5693-25.1358,58.9252-.1088,10.369,1.661,20.4684,5.1477,29.9134-20.2112.6602-40.2405,8.5798-55.7937,23.8092-1.0399,1.0182-2.0467,2.0616-3.0261,3.1238C8.2883,155.4739.2275,175.3912.0047,196.6043c-.2347,22.3564,8.2506,43.4656,23.893,59.4403,15.6423,15.9747,36.5693,24.9011,58.9257,25.1358,22.3593.2473,43.4662-8.2503,59.4406-23.8926.0425-.0417.0848-.0839.1271-.1256l16.4795-16.4795-24.0674-24.0674-5.3358,5.3361-.0151-.0154-10.4173,10.4175c-19.5716,19.1002-51.0346,18.7512-70.1756-.7955-9.2814-9.4787-14.3163-22.0046-14.1772-35.2701.1368-13.0017,5.2542-25.1695,14.3808-34.3878,19.5744-19.0568,50.9995-18.6981,70.1419.8509,0,0,95.1119,97.1654,97.2106,98.9244l13.422,13.7075c9.282,9.4781,14.3168,22.0041,14.1775,35.2701-.1393,13.2655-5.4361,25.6824-14.915,34.9646-9.5989,9.3993-22.046,14.5984-35.0485,14.6383-12.9551.0297-25.1161-5.0928-34.2807-14.4516l-.9052-.9246c-5.3604-5.4737-8.3223-12.5534-8.3405-19.9345-.0183-7.2881,2.8799-14.1495,8.1595-19.3194l.5985-.5859-23.8115-24.3198-.5993.5865c-11.8955,11.6482-18.424,27.1757-18.3832,43.7226.0403,16.3059,6.4534,31.8128,18.0577,43.6638l.9054.924c15.5875,15.9187,36.334,24.675,58.446,24.675h.2581c21.9195-.0674,42.7863-8.7175,58.757-24.3563,7.4345-7.2801,13.32-15.7148,17.5357-24.8954,4.2157,9.1806,10.1012,17.6154,17.536,24.8954,15.9707,15.6389,36.8372,24.2889,58.757,24.3563h.2578c22.1123,0,42.8586-8.7563,58.4463-24.675l.9054-.924c11.6042-11.8509,18.0174-27.3579,18.0574-43.6638.0411-16.5469-6.4874-32.0744-18.3829-43.7226l-.5996-.5865-23.8115,24.3198.5988.5859c5.2796,5.1699,8.1775,12.0314,8.1595,19.3194-.0183,7.3811-2.9802,14.4607-8.3405,19.9345l-.9052.9246c-9.1649,9.3588-21.3259,14.4813-34.2807,14.4516-13.0022-.04-25.4494-5.239-35.0485-14.6389-9.4787-9.2817-14.776-21.6985-14.9153-34.964-.1391-13.2661,4.8958-25.792,14.1775-35.2701l13.4225-13.7075c2.0984-1.7589,97.2106-98.9244,97.2106-98.9244,19.047-19.4519,50.2465-19.8877,69.8404-1.1176,9.3539,9.26,14.5884,21.5889,14.7269,34.7619.1391,13.2655-4.8955,25.7909-14.1772,35.2696-19.0562,19.4605-50.3171,19.8774-69.9064,1.0331l-16.0826-16.082-24.0668,24.0668,5.4118,5.4121-.016.016,10.4849,10.4844c.042.0428.0845.0845.1271.1262.1445.1411.2958.2701.4409.41l.0303.0308c.0423.0417.0848.0839.1273.1256,15.9741,15.6429,37.0813,24.1399,59.4408,23.8926,22.3561-.2347,43.2829-9.1612,58.9255-25.1358,15.6426-15.9741,24.1276-37.0839,23.8929-59.4403-.2347-22.3564-9.1615-43.2834-25.1358-58.9257Zm-280.4789,25.0559c9.3728-9.5718,21.7014-14.5087,34.1403-14.8439.3438-.0051.6867-.04,1.0302-.0377.3438-.0023.6867.0326,1.0302.0377,12.4391.3352,24.7678,5.2722,34.1405,14.8439,9.2817,9.4787,14.3163,22.0041,14.1775,35.2701-.1159,10.9955-3.8222,21.3787-10.4692,29.906-2.3286,2.378-3.6592,3.7377-3.6592,3.7377-7.1744,7.3263-16.0749,11.9554-25.4297,13.88-.0288.0057-.0571.0148-.0859.02-.6011.1228-1.2107.181-1.8154.2815-15.2825,2.334-31.4365-2.4145-43.0633-14.2883,0,0-1.5393-1.5727-4.2217-4.3122-6.3172-8.3982-9.839-18.5194-9.9515-29.2247-.1393-13.2661,4.8958-25.7914,14.1772-35.2701Z" style="fill:#fff2e8;"/></g></svg>