<?xml version="1.0" encoding="UTF-8"?><svg id="Calque_2" xmlns="http://www.w3.org/2000/svg" viewBox="0 0 394.2923 540.898"><g id="Components"><path id="d9594a8f-3fc6-4a46-8719-3514755d3167_1" d="m369.8286,287.9844c-15.6424-15.9741-36.5692-24.9006-58.9256-25.1358-10.3176-.1079-20.3674,1.647-29.7718,5.0997-.6783-20.9767-9.0688-40.6456-23.8436-55.7334-.0417-.0423-.0835-.0845-.1255-.1268l-.035.0348c-.1746-.1816-.3366-.3706-.5133-.5511-.0415-.0428-.0834-.0851-.1258-.1273l-.019.0188c-12.399-12.6025-28.1003-20.7757-45.1901-23.7378,24.6009-24.1279,49.5136-48.6087,50.3963-49.6618l13.7074-13.422c9.4785-9.2822,22.0045-14.3168,35.2701-14.1775,13.2656.1393,25.6828,5.4361,34.9646,14.9147,9.3999,9.5992,14.5985,22.0463,14.6386,35.0485.03,12.9554-5.0927,25.1164-14.4518,34.281l-.9244.9052c-5.4739,5.3601-12.5535,8.3223-19.9348,8.3405-7.2879.0177-14.1491-2.8799-19.3189-8.1595l-.5862-.5991-24.3201,23.8115.5868.5996c11.6482,11.8955,27.1759,18.424,43.7226,18.3829,16.306-.04,31.8127-6.4531,43.6636-18.0574l.9243-.9052c15.9187-15.5875,24.6751-36.334,24.6751-58.446,0-.0857-.0003-.173-.0004-.2581-.0675-21.9195-8.7173-42.7866-24.3562-58.7573-15.6424-15.9741-36.5692-24.9011-58.9256-25.1358-10.3689-.1091-20.4683,1.6613-29.913,5.1477-.6607-20.2109-8.5798-40.2402-23.8094-55.7934-1.0184-1.0399-2.0614-2.0467-3.1235-3.0267C238.8186,8.2882,218.9014.2275,197.6882.0047c-22.3564-.2347-43.4662,8.2509-59.4404,23.8926-15.9745,15.6429-24.9014,36.5693-25.1361,58.9257-.2471,22.3598,8.2503,43.4668,23.893,59.4408.0417.0428.0835.0851.1255.1273l16.4792,16.4789,24.0674-24.0668-5.3358-5.3361.0151-.0148-10.4173-10.4175c-19.1002-19.5713-18.7514-51.0346.7955-70.1753,9.4787-9.2817,22.0045-14.3163,35.2701-14.1775,13.0019.1371,25.17,5.2545,34.3884,14.3814,19.0559,19.5741,18.6971,50.9992-.8516,70.1416,0,0-63.2022,61.8656-88.5788,86.9038-1.6113,1.3592-3.1933,2.7629-4.7148,4.2522-1.8698,1.8314-3.6336,3.7411-5.3077,5.7107-.1598.165-.2791.2912-.3229.3432l-13.7074,13.4225c-9.4785,9.2817-22.0045,14.3163-35.2701,14.1775-13.2656-.1393-25.6828-5.4366-34.9646-14.9153-9.3999-9.5992-14.5985-22.0463-14.6386-35.0485-.03-12.9548,5.0927-25.1159,14.4518-34.2805l.9244-.9057c5.4739-5.3601,12.5535-8.3217,19.9348-8.34,7.2879-.0183,14.1491,2.8794,19.3189,8.1595l.5862.5985,24.3201-23.8115-.5868-.5996c-11.6482-11.8955-27.1759-18.424-43.7226-18.3829-16.306.04-31.8126,6.4531-43.6636,18.0574l-.9243.9057C8.7564,151.0396,0,171.7862,0,193.8982c0,.0851.0003.1725.0004.2581.0675,21.9195,8.7173,42.786,24.3562,58.7567,15.6423,15.9747,36.5692,24.9011,58.9255,25.1358,10.3563.1091,20.4433-1.6573,29.878-5.1357.6594,21.007,9.0507,40.7073,23.8446,55.8145.0417.0428.0835.0851.1255.1273l.0011-.0011c.1499.1553.2885.3175.4399.4723.0417.0423.0835.0851.1258.1268l.0431-.0428c.7867.7847,1.5775,1.563,2.3895,2.3123,12.0148,11.329,26.8339,18.713,42.8835,21.4952-24.6007,24.1279-49.5134,48.6081-50.3962,49.6612l-13.7074,13.4225c-9.4785,9.2817-22.0045,14.3163-35.2701,14.1775-13.2656-.1393-25.6828-5.4366-34.9646-14.9153-9.3999-9.5992-14.5985-22.0463-14.6385-35.0485-.0301-12.9548,5.0926-25.1159,14.4516-34.2805l.9244-.9057c5.4739-5.3601,12.5535-8.3217,19.9348-8.34,7.2879-.0183,14.1491,2.8794,19.3189,8.1595l.5862.5985,24.3201-23.8115-.5868-.5996c-11.6482-11.8955-27.1759-18.424-43.7226-18.3829-16.306.04-31.8126,6.4531-43.6636,18.0574l-.9243.9057c-15.9187,15.5875-24.6751,36.334-24.6751,58.446,0,.0857.0003.1725.0004.2581.0675,21.9195,8.7173,42.786,24.3562,58.7567,15.6424,15.9747,36.5692,24.9011,58.9256,25.1358,10.3689.1091,20.4683-1.6607,29.913-5.1477.6607,20.2109,8.5798,40.2408,23.8094,55.7934.0321.0331.0662.0634.0984.0959.1595.1656.3071.3381.4683.5025,15.6424,15.9747,36.5693,24.9017,58.9257,25.1364,22.3564.2347,43.4662-8.2509,59.4406-23.8932s24.9013-36.5693,25.136-58.9257c.2471-22.3593-8.2503-43.4662-23.893-59.4403-.0417-.0428-.0835-.0851-.1255-.1273l-.0304-.0303c-.1401-.1451-.2693-.297-.4106-.4409-.0417-.0428-.0835-.0851-.1258-.1273l-10.4848-10.4849-.0158.016-5.4118-5.4121-24.0674,24.0674,16.0815,16.0815c18.8455,19.589,18.4289,50.8507-1.0319,69.9075-9.4787,9.2811-22.0044,14.3163-35.2701,14.1769-13.1727-.1382-25.5013-5.3727-34.7614-14.7269-18.7701-19.5936-18.3343-50.7931,1.1176-69.8407,0,0,61.6431-60.3397,87.6201-85.9587,1.9899-1.6224,3.9233-3.3345,5.7806-5.1528,2.1718-2.1267,4.2008-4.359,6.1079-6.6713l13.123-12.8497c9.4785-9.2817,22.0044-14.3168,35.2701-14.1775,13.2656.1393,25.6828,5.4361,34.9646,14.9147,9.3999,9.5992,14.5985,22.0463,14.6385,35.0491.03,12.9548-5.0926,25.1159-14.4516,34.2805l-.9244.9052c-5.474,5.3607-12.5535,8.3223-19.9348,8.3405-7.2879.0183-14.1491-2.8799-19.3189-8.1595l-.5862-.5985-24.3202,23.8115.5869.5996c11.6482,11.8955,27.1759,18.424,43.7226,18.3829,16.306-.04,31.8126-6.4531,43.6636-18.0574l.9243-.9057c15.9187-15.5875,24.6751-36.334,24.6751-58.446,0-.0857-.0003-.1725-.0006-.2581-.0674-21.9195-8.7172-42.7866-24.356-58.7573Zm-207.0776-52.7102s.4097-.4015,1.1647-1.1404c9.3152-8.5204,21.2945-13.1655,33.9816-13.0331,13.1724.1388,25.5006,5.3727,34.7607,14.7269,9.684,10.1086,14.224,23.2947,13.7044,36.3226-.4933,12.2101-5.4055,24.2655-14.8047,33.4695-9.4785,9.2811-22.0044,14.3163-35.27,14.1769-13.0017-.1365-25.1694-5.2539-34.3875-14.3802-19.0566-19.5747-18.6983-50.9998.8508-70.1422Z" style="fill:#fff2e8;"/></g></svg>